# xmcd
#
# Track frame offsets:
#	150
#	16247
#	27650
#	38205
#	50077
#	58820
#	71457
#	86107
#	95285
#	106510
#	118017
#
# Disc length: 1761 seconds
#
# Revision: 0
# Processed by: cddbd v1.5.1PL0 Copyright (c) Steve Scherf et al.
# Submitted via: dBpowerAMP V4.0
#
DISCID=8f06df0b
DTITLE=Jerry Reed - Fingerdancing
DYEAR=1900
DGENRE=Country
TTITLE0=Stars and Stripes Forever
TTITLE1=Jiffy Jam
TTITLE2=Jerry's Breakdown
TTITLE3=Swingin
TTITLE4=The Claw
TTITLE5=The Early Dawn
TTITLE6=My Gypsy Heart
TTITLE7=Winter Walking
TTITLE8=Bluesland
TTITLE9=Steeplechase
TTITLE10=Mister Lucky
EXTD=
EXTT0=
EXTT1=
EXTT2=
EXTT3=
EXTT4=
EXTT5=
EXTT6=
EXTT7=
EXTT8=
EXTT9=
EXTT10=
PLAYORDER=
